<svg xmlns="http://www.w3.org/2000/svg" width="24" height="23" fill="none"><path stroke="#fff" stroke-linecap="round" stroke-width="1.5" d="M11 18.688h3.25c.828 0 1.5-.644 1.5-1.438v-3.713M3 14.614V3.833c0-.794.672-1.437 1.5-1.437h9.75c.828 0 1.5.643 1.5 1.437v4.073"/><path stroke="#fff" stroke-width="1.5" d="M3 4.525C3 3.506 4.075 2.81 5.06 3.192l4.25 1.64c.568.22.94.748.94 1.334v13.267c0 1.019-1.075 1.714-2.06 1.334l-4.25-1.641A1.44 1.44 0 0 1 3 17.792V4.525Z"/><path stroke="#fff" stroke-linecap="round" stroke-width="1.5" d="m19.75 12.938 1.454-1.394c.44-.421.44-1.104 0-1.525L19.75 8.625M19 10.781h-6"/></svg>