<svg xmlns="http://www.w3.org/2000/svg" width="297" height="302" fill="none"><path fill="#fff" d="M297 0H0v302h297z"/><path fill="#292A2E" d="M17.189 281.227h269.443a.217.217 0 0 0 .203-.139.236.236 0 0 0 0-.173.22.22 0 0 0-.203-.14H17.189a.217.217 0 0 0-.155.066.231.231 0 0 0 0 .32.217.217 0 0 0 .155.066Z"/><path fill="#292A2E" d="M17.189 281.227h269.443a.217.217 0 0 0 .203-.139.236.236 0 0 0 0-.173.22.22 0 0 0-.203-.14H17.189a.217.217 0 0 0-.155.066.231.231 0 0 0 0 .32.217.217 0 0 0 .155.066Z" opacity=".65"/><path fill="#494949" d="m267.874 280.829.615-.122-9.613-98.482-.615.122 9.613 98.482ZM232.081 280.829l.615-.122-9.613-98.482-.614.122 9.612 98.482ZM152.963 280.829l-.615-.122 9.613-98.482.615.122-9.613 98.482ZM188.756 280.829l-.615-.122 9.612-98.482.615.122-9.612 98.482ZM201.504 138.884l.621.085-5.616 43.361-.621-.085 5.616-43.361ZM265.958 138.883l.621.085-5.615 43.362-.621-.086 5.615-43.361Z"/><path fill="#292A2E" d="M195.942 179.111h63.044c1.701 0 3.08 1.422 3.08 3.176 0 1.754-1.379 3.175-3.08 3.175h-63.044c-1.701 0-3.08-1.421-3.08-3.175 0-1.754 1.379-3.176 3.08-3.176Z"/><path fill="#fff" d="M195.942 179.111h63.044c1.701 0 3.08 1.422 3.08 3.176 0 1.754-1.379 3.175-3.08 3.175h-63.044c-1.701 0-3.08-1.421-3.08-3.175 0-1.754 1.379-3.176 3.08-3.176Z" opacity=".8"/><path fill="#292A2E" d="M195.943 185.785h63.043a3.344 3.344 0 0 0 2.378-1.036c.63-.656.983-1.54.983-2.462 0-.922-.353-1.807-.983-2.462a3.345 3.345 0 0 0-2.378-1.037h-63.043a3.345 3.345 0 0 0-2.378 1.037 3.556 3.556 0 0 0-.982 2.462c0 .922.353 1.806.982 2.462a3.344 3.344 0 0 0 2.378 1.036Zm63.043-6.351a2.724 2.724 0 0 1 1.937.846c.513.534.801 1.255.801 2.007 0 .751-.288 1.472-.801 2.006a2.724 2.724 0 0 1-1.937.846h-63.043a2.726 2.726 0 0 1-1.937-.846 2.896 2.896 0 0 1-.8-2.006c0-.752.287-1.473.8-2.007a2.726 2.726 0 0 1 1.937-.846h63.043Z"/><path fill="#fff" d="M161.34 179.111h63.044c1.701 0 3.08 1.422 3.08 3.175v.001c0 1.753-1.379 3.175-3.08 3.175H161.34c-1.701 0-3.08-1.422-3.08-3.175v-.001c0-1.753 1.379-3.175 3.08-3.175Z"/><path fill="#292A2E" d="M161.34 185.785h63.044a3.352 3.352 0 0 0 2.42-1.013c.319-.325.572-.712.744-1.139a3.58 3.58 0 0 0-.744-3.832 3.383 3.383 0 0 0-1.112-.756 3.306 3.306 0 0 0-1.308-.257H161.34a3.31 3.31 0 0 0-1.309.257 3.403 3.403 0 0 0-1.112.756 3.515 3.515 0 0 0-.744 1.139 3.604 3.604 0 0 0 0 2.693c.173.427.426.814.744 1.139.319.326.697.583 1.112.756.416.174.86.261 1.309.257Zm63.044-6.351a2.71 2.71 0 0 1 1.975.825c.26.265.467.581.608.929a2.925 2.925 0 0 1-.608 3.126 2.71 2.71 0 0 1-1.975.825H161.34a2.703 2.703 0 0 1-1.068-.208 2.761 2.761 0 0 1-.908-.617 2.858 2.858 0 0 1-.607-.929 2.925 2.925 0 0 1 0-2.197c.141-.348.347-.664.607-.929.26-.266.569-.475.908-.617a2.703 2.703 0 0 1 1.068-.208h63.044ZM204.958 138.925H266.1c.999 0 1.965-.375 2.716-1.055a4.282 4.282 0 0 0 1.365-2.64l4.045-32.022a4.39 4.39 0 0 0-.144-1.784 4.292 4.292 0 0 0-.845-1.564 4.12 4.12 0 0 0-1.396-1.066 4.01 4.01 0 0 0-1.697-.377h-61.142c-1 0-1.965.375-2.716 1.055a4.285 4.285 0 0 0-1.366 2.64l-4.044 32.021a4.359 4.359 0 0 0 .144 1.785 4.3 4.3 0 0 0 .845 1.564c.386.453.862.817 1.395 1.066a4.01 4.01 0 0 0 1.698.377Z"/><path fill="#fff" d="M204.958 138.925H266.1c.999 0 1.965-.375 2.716-1.055a4.282 4.282 0 0 0 1.365-2.64l4.045-32.022a4.39 4.39 0 0 0-.144-1.784 4.292 4.292 0 0 0-.845-1.564 4.12 4.12 0 0 0-1.396-1.066 4.01 4.01 0 0 0-1.697-.377h-61.142c-1 0-1.965.375-2.716 1.055a4.285 4.285 0 0 0-1.366 2.64l-4.044 32.021a4.359 4.359 0 0 0 .144 1.785 4.3 4.3 0 0 0 .845 1.564c.386.453.862.817 1.395 1.066a4.01 4.01 0 0 0 1.698.377Z" opacity=".8"/><path fill="#292A2E" d="M204.957 139.248h61.142a4.366 4.366 0 0 0 2.921-1.138 4.63 4.63 0 0 0 1.472-2.838l4.044-32.021a4.683 4.683 0 0 0-.155-1.92 4.594 4.594 0 0 0-.909-1.683 4.444 4.444 0 0 0-1.502-1.147 4.31 4.31 0 0 0-1.826-.407h-61.142a4.366 4.366 0 0 0-2.921 1.139 4.62 4.62 0 0 0-1.472 2.839l-4.044 32.02a4.683 4.683 0 0 0 .155 1.92 4.59 4.59 0 0 0 .909 1.683c.416.488.928.879 1.502 1.147a4.313 4.313 0 0 0 1.826.407v-.001Zm65.187-40.509c.541 0 1.075.12 1.568.35.493.23.932.565 1.289.984.357.419.623.912.781 1.445.157.534.203 1.096.133 1.649l-4.044 32.021a3.976 3.976 0 0 1-1.264 2.437 3.749 3.749 0 0 1-2.508.977h-61.142a3.705 3.705 0 0 1-1.568-.349 3.804 3.804 0 0 1-1.29-.985 3.948 3.948 0 0 1-.78-1.445 4.03 4.03 0 0 1-.133-1.649l4.044-32.021a3.974 3.974 0 0 1 1.264-2.437 3.75 3.75 0 0 1 2.508-.977h61.142Z"/><path fill="#fff" d="M201.5 138.925h61.142c1 0 1.965-.375 2.716-1.055a4.283 4.283 0 0 0 1.366-2.64l4.044-32.022a4.355 4.355 0 0 0-.144-1.784 4.283 4.283 0 0 0-.845-1.564 4.127 4.127 0 0 0-1.395-1.066 4.013 4.013 0 0 0-1.698-.377h-61.142c-.999 0-1.965.375-2.716 1.055a4.285 4.285 0 0 0-1.366 2.64l-4.044 32.021a4.376 4.376 0 0 0 .144 1.785 4.3 4.3 0 0 0 .845 1.564c.386.453.862.817 1.395 1.066a4.012 4.012 0 0 0 1.698.377Z"/><path fill="#292A2E" d="M201.5 139.248h61.142a4.363 4.363 0 0 0 2.92-1.138 4.62 4.62 0 0 0 1.472-2.838l4.045-32.021a4.717 4.717 0 0 0-.155-1.92 4.624 4.624 0 0 0-.909-1.683 4.444 4.444 0 0 0-1.502-1.147 4.318 4.318 0 0 0-1.827-.407h-61.142a4.362 4.362 0 0 0-2.92 1.139 4.62 4.62 0 0 0-1.472 2.839l-4.045 32.02a4.717 4.717 0 0 0 .155 1.92 4.61 4.61 0 0 0 .91 1.684 4.42 4.42 0 0 0 1.501 1.146 4.317 4.317 0 0 0 1.827.407v-.001Zm65.186-40.509a3.71 3.71 0 0 1 1.569.35c.492.23.932.565 1.289.984.357.419.623.912.781 1.445.157.534.202 1.096.133 1.649l-4.045 32.021a3.966 3.966 0 0 1-1.264 2.437 3.744 3.744 0 0 1-2.507.977H201.5a3.695 3.695 0 0 1-1.569-.349 3.81 3.81 0 0 1-1.289-.984 3.955 3.955 0 0 1-.781-1.446 4.03 4.03 0 0 1-.133-1.649l4.045-32.021a3.97 3.97 0 0 1 1.263-2.437 3.75 3.75 0 0 1 2.508-.977h61.142Z"/><path fill="#000" d="M115.268 264.359s-1.679 8.973-9.828 9.473-6.382 7.193-6.382 7.193h31.141v-16.041l-14.931-.625ZM174.513 258.693s2.335 8.816-4.763 12.973c-7.098 4.158-2.647 9.359-2.647 9.359l27.943-14.173-6.867-14.394-13.666 6.235Z"/><path fill="#0C0C0C" d="M199.588 49.601s-4.062-3.161-5.069-10.44c-.78-5.634 4.262-1.984 4.262-1.984s-.523-4.063 2.349-3.66c2.871.403 4.478 4.672 4.478 4.672M215.97 33.993s14.247 1.575 9.097 21.478l-1.261.087-2.559.177"/><path fill="#E98862" d="M201.975 76.257c.063-.008.758 11.882 14.156 10.846 9.276-.716 12.583-10.862 12.796-10.862-1-.22-2.236-.552-2.727-.666a5.381 5.381 0 0 1-2.78-1.68 5.657 5.657 0 0 1-1.36-3.012c-.271-1.685.188-10.308.048-12.014l-14.239 3.277c.199 3.601 1.592 11.95-3.288 13.429-.813.244-1.688.469-2.606.682Z"/><path fill="#0C0C0C" d="M207.669 72.162c.223-.74.367-1.504.429-2.278a25.1 25.1 0 0 0-.094-5.299 15.383 15.383 0 0 0 7.869-3.554c.264 1.006 1.718 5.405 1.315 6.362-.759 1.808-4.334 4.77-9.519 4.77Z" opacity=".52"/><path fill="#E98862" d="M210.608 69.81c5.617-.52 12.34-4.18 12.437-12.04l.088-7.094c.096-7.86-3.83-14.286-11.009-14.38-7.179-.094-12.624 6.208-12.721 14.07l-.038 3.14c.005 1.078.081 2.155.228 3.222.368 2.825.939 7.12 2.798 10.026 1.757 2.743 4.628 3.387 8.217 3.055Z"/><path fill="#0C0C0C" d="M208.002 62.623a7.21 7.21 0 0 1-3.373-.664.186.186 0 0 1-.11-.174c0-.024.005-.048.014-.07a.181.181 0 0 1 .169-.113c.024 0 .047.004.069.014 2.28 1.002 4.35.855 5.987-.425a1.14 1.14 0 0 1 .103-.075.176.176 0 0 1 .131-.008.19.19 0 0 1 .049.331 5.333 5.333 0 0 1-3.039 1.185ZM208.056 64.394c-.21.014-.42.009-.629-.015a.188.188 0 0 1-.094-.33.177.177 0 0 1 .133-.041c1.254.137 1.853-.456 1.878-.481a.177.177 0 0 1 .253.004c.034.034.053.08.053.129a.19.19 0 0 1-.049.13 2.415 2.415 0 0 1-1.545.604ZM201.774 55.017c-.488 0-.884-.408-.884-.912 0-.503.396-.911.884-.911.489 0 .885.408.885.911a.899.899 0 0 1-.885.912ZM210.414 54.458a.899.899 0 0 1-.885-.912c0-.503.396-.911.885-.911.488 0 .884.408.884.911 0 .504-.396.912-.884.912Z"/><path fill="#E98862" d="M222.569 60.159c2.182.028 3.98-2.355 4.009-4.604.028-2.25-1.726-3.513-3.907-3.542l-1.143 1.492-.834 6.629 1.875.025Z"/><path fill="#0C0C0C" d="M220.4 56.544s-.736-11.123-4.008-11.81c-2.179-.458-7.463 2.729-12.357 1.766-2.141-.42-4.174.126-4.38 1.168-.082.413-1.416-5.52 1.937-10.022 2.669-3.584 11.406-4.598 15.38-3.423 11.006 3.255 6.149 18.28 6.149 18.28l-.491 3.834-2.23.207ZM206.684 59.998h-.014c-.703-.007-1.881-.1-1.877-.642.005-.45 1.245-5.287 1.387-5.837a.183.183 0 0 1 .086-.1.174.174 0 0 1 .232.064.19.19 0 0 1 .026.13c-.55 2.143-1.371 5.441-1.374 5.747.068.13.794.262 1.522.27.046 0 .09.02.122.053a.184.184 0 0 1 .053.126.18.18 0 0 1-.164.19h.001Z"/><path fill="#0C0C0C" d="M204.284 49.161a4.133 4.133 0 0 0-2.258 0c-.363.101-.709.257-1.027.464a4.42 4.42 0 0 0-.857.722.274.274 0 0 0-.01.376.256.256 0 0 0 .364.018l.016-.014c.236-.226.499-.42.783-.578.278-.157.577-.27.888-.334a3.441 3.441 0 0 1 1.84.106l.025.009c.098.036.206.03.3-.016a.396.396 0 0 0 .2-.23.418.418 0 0 0-.015-.309.397.397 0 0 0-.223-.207l-.026-.007ZM209.516 49.62a3.457 3.457 0 0 1 1.81-.359c.317.021.628.092.924.21.301.117.586.273.85.464l.016.012a.256.256 0 0 0 .354-.071.273.273 0 0 0 .045-.195.266.266 0 0 0-.097-.172 4.388 4.388 0 0 0-.944-.599 3.992 3.992 0 0 0-2.203-.321c-.384.05-.758.155-1.113.313a.404.404 0 0 0-.209.222.415.415 0 0 0 .006.31.396.396 0 0 0 .216.216.38.38 0 0 0 .322-.017l.023-.014ZM205.336 41.504c-1.615-.348-2.522-2.616-2.025-5.067.496-2.45 2.208-4.155 3.823-3.807 1.615.348 2.522 2.616 2.025 5.067-.497 2.45-2.208 4.155-3.823 3.807Z"/><path fill="#262626" d="m191.82 256.203-23.565-76.643h42.714c8.581 0 12.157-7.502 12.157-16.348 0-8.845-8.435-16.6-17.014-16.6h-57.649c-5.233 0-11.101 3.3-13.973 7.81s-2.096 11.499-.015 16.45l37.735 94.49"/><path fill="#0A0A0A" d="m191.82 256.203-23.565-76.643h42.714c8.581 0 12.157-7.502 12.157-16.348 0-8.845-8.435-16.6-17.014-16.6h-57.649c-5.233 0-11.101 3.3-13.973 7.81s-2.096 11.499-.015 16.45l37.735 94.49" opacity=".8"/><path fill="#262626" d="m131.99 272.692 39.402-93.132 51.736-.004c12.122-.98 17.674-7.829 17.497-16.673-.174-8.732-4.462-17.356-12.893-17.356h-69.731c-6.238.132-11.145 7.239-13.459 13.213l-32.756 108.25"/><path fill="#262626" d="M244.154 145.634s2.297 15.447-1.345 24.036c-4.546 10.722-21.591 9.886-21.591 9.886l.961-34.029 21.975.107Z"/><path fill="#015185" d="m143.059 145.33 36.545-7.808a9.143 9.143 0 0 0 4.125-2.081 9.545 9.545 0 0 0 2.644-3.871l14.374-39.051a9.814 9.814 0 0 0-.187-7.316 9.533 9.533 0 0 0-2.095-3.042 9.211 9.211 0 0 0-3.067-1.981 8.999 8.999 0 0 0-7.094.228 9.26 9.26 0 0 0-2.942 2.174 9.604 9.604 0 0 0-1.906 3.172l-12.574 34.158-31.577 6.746s3.12 18.807 3.754 18.672Z"/><path fill="#015185" d="M185.327 102.437c.422 5.112 3.413 37.003 3.82 43.299h54.983c.316-5.678 1.734-30.51 2.932-41.616 1.144-10.597 2.747-15.419 1.43-18.712-2.323-5.808-9.718-8.402-14.725-9.1-3.057-.427-7.656-.733-7.656-.733s-.389 8.12-9.674 8.573c-12.638.613-11.794-8.573-11.857-8.573-2.047 0-13.193 1.535-15.979 3.407-3.937 2.646-5.1 6.25-5.146 9.562-.053 3.813 1.393 8.094 1.872 13.893Z"/><path fill="#0C0C0C" d="M187.488 128.494h.013a.18.18 0 0 0 .059-.017.16.16 0 0 0 .077-.095.162.162 0 0 0 .007-.062l-1.427-17.678a.184.184 0 0 0-.016-.061.155.155 0 0 0-.092-.081c-.02-.006-.041-.008-.061-.006a.15.15 0 0 0-.059.018.179.179 0 0 0-.048.039.161.161 0 0 0-.029.055.15.15 0 0 0-.007.063l1.427 17.678c.003.04.021.077.05.105a.156.156 0 0 0 .106.042Z"/><path fill="#292A2E" d="m178.649 142.23-12.064-38.233a3.346 3.346 0 0 0-1.179-1.673 3.185 3.185 0 0 0-1.908-.639h-49.15c-.512 0-1.017.125-1.474.365-.456.24-.851.588-1.152 1.015-.301.428-.5.922-.58 1.444a3.452 3.452 0 0 0 .119 1.558l12.064 38.234a3.339 3.339 0 0 0 1.18 1.672 3.174 3.174 0 0 0 1.907.639h49.15c.512 0 1.018-.125 1.474-.365a3.266 3.266 0 0 0 1.153-1.015 3.4 3.4 0 0 0 .579-1.444 3.455 3.455 0 0 0-.119-1.558Z"/><path fill="#fff" d="m178.649 142.23-12.064-38.233a3.346 3.346 0 0 0-1.179-1.673 3.185 3.185 0 0 0-1.908-.639h-49.15c-.512 0-1.017.125-1.474.365-.456.24-.851.588-1.152 1.015-.301.428-.5.922-.58 1.444a3.452 3.452 0 0 0 .119 1.558l12.064 38.234a3.339 3.339 0 0 0 1.18 1.672 3.174 3.174 0 0 0 1.907.639h49.15c.512 0 1.018-.125 1.474-.365a3.266 3.266 0 0 0 1.153-1.015 3.4 3.4 0 0 0 .579-1.444 3.455 3.455 0 0 0-.119-1.558Z" opacity=".2"/><path fill="#292A2E" d="M168.807 143.512h32.902c.819 0 1.484.685 1.484 1.53v.04c0 .845-.665 1.53-1.484 1.53h-32.902c-.819 0-1.484-.685-1.484-1.53v-.04c0-.845.665-1.53 1.484-1.53Z"/><path fill="#fff" d="M168.807 143.512h32.902c.819 0 1.484.685 1.484 1.53v.04c0 .845-.665 1.53-1.484 1.53h-32.902c-.819 0-1.484-.685-1.484-1.53v-.04c0-.845.665-1.53 1.484-1.53Z" opacity=".2"/><path fill="#fff" d="M144.955 131.328c-2.847 0-5.155-2.379-5.155-5.314s2.308-5.315 5.155-5.315c2.847 0 5.155 2.38 5.155 5.315 0 2.935-2.308 5.314-5.155 5.314ZM184.829 95.31h13.069v16.526h-13.069V95.31Z"/><path fill="#fff" d="M197.898 109.091a5.241 5.241 0 0 0 2.974-.93 5.487 5.487 0 0 0 1.971-2.477 5.681 5.681 0 0 0 .305-3.188 5.583 5.583 0 0 0-1.465-2.825 5.306 5.306 0 0 0-2.74-1.51 5.205 5.205 0 0 0-3.093.314 5.39 5.39 0 0 0-2.402 2.032 5.64 5.64 0 0 0-.902 3.066 5.613 5.613 0 0 0 1.57 3.9 5.279 5.279 0 0 0 3.782 1.618Zm0-8.776c.625 0 1.236.191 1.756.549.52.358.925.867 1.164 1.462.239.596.302 1.251.18 1.883a3.292 3.292 0 0 1-.865 1.668 3.13 3.13 0 0 1-1.618.891 3.074 3.074 0 0 1-1.826-.185 3.18 3.18 0 0 1-1.418-1.2 3.334 3.334 0 0 1 .394-4.113 3.115 3.115 0 0 1 2.233-.955Z"/><path fill="#E98862" d="M197.145 106.021c.119-.319.343-.585.633-.751.29-.166.628-.221.953-.156a.133.133 0 0 1-.009-.049l-.439-.202a1.464 1.464 0 0 1-.715-.679 1.539 1.539 0 0 1-.137-.992c.046-.211.137-.408.266-.578.129-.17.293-.308.48-.405a1.38 1.38 0 0 1 1.21-.029l1.034.477c0-.004 0-.008.002-.012a.097.097 0 0 1 .015-.024 1.455 1.455 0 0 1-.516-.798 1.501 1.501 0 0 1 .076-.956c.288-.801 1.305-.865 1.978-.555l2.704 1.124-.816-.853a1.537 1.537 0 0 1-.402-1.03 1.537 1.537 0 0 1 .388-1.035 1.376 1.376 0 0 1 1.591-.302c.174.083.331.2.46.347l9.614 10.825-3.288 3.264a7.032 7.032 0 0 1-3.709 1.943 6.923 6.923 0 0 1-4.129-.526l-5.859-2.709a1.46 1.46 0 0 1-.715-.679 1.525 1.525 0 0 1-.137-.992c.066-.303.225-.576.452-.779.228-.203.512-.326.812-.351a.13.13 0 0 1 .099-.153l-1.082-.498a1.486 1.486 0 0 1-.768-.778 1.554 1.554 0 0 1-.046-1.109Z"/><path fill="#0C0C0C" d="M202.376 103.573a.133.133 0 0 0 .131-.111.14.14 0 0 0-.014-.092.13.13 0 0 0-.068-.061l-1.829-.743a.125.125 0 0 0-.051-.01.146.146 0 0 0-.05.012.128.128 0 0 0-.071.075.16.16 0 0 0-.009.053c0 .018.004.035.011.052a.16.16 0 0 0 .029.044.16.16 0 0 0 .044.029l1.829.742c.015.007.032.01.048.01ZM201.355 106.239a.133.133 0 0 0 .085-.031.143.143 0 0 0 .032-.171.139.139 0 0 0-.067-.062l-2.502-1.037a.124.124 0 0 0-.098.005.13.13 0 0 0-.069.073.138.138 0 0 0 .068.176l2.502 1.037c.015.007.032.01.049.01ZM200.265 109.134a.128.128 0 0 0 .085-.032.132.132 0 0 0 .045-.08.137.137 0 0 0-.084-.153l-1.192-.461a.13.13 0 0 0-.102.003.133.133 0 0 0-.069.076.137.137 0 0 0 .003.105.134.134 0 0 0 .074.072l1.192.461a.132.132 0 0 0 .048.009Z" opacity=".2"/><path fill="#fff" d="M194.364 84.8a.305.305 0 0 0 .163-.048.327.327 0 0 0 .116-.128c.713-1.434 1.6-3.218 1.5-5.088-.08-1.487-.756-2.809-1.41-4.085a16.296 16.296 0 0 1-1.075-2.41 7.885 7.885 0 0 1-.264-3.56 7.798 7.798 0 0 1 1.328-3.296.325.325 0 0 0 .064-.243.324.324 0 0 0-.237-.27.303.303 0 0 0-.24.04.312.312 0 0 0-.09.09 8.466 8.466 0 0 0-1.444 3.577 8.581 8.581 0 0 0 .285 3.864c.304.867.678 1.706 1.117 2.51.651 1.271 1.266 2.472 1.338 3.819.091 1.695-.718 3.322-1.432 4.757a.336.336 0 0 0 .012.316.316.316 0 0 0 .267.154h.002ZM189.335 89.838c.07 0 .137-.023.192-.067a.328.328 0 0 0-.04-.538c-1.161-.66-1.291-2.497-.745-3.891.27-.641.587-1.26.946-1.853.481-.767.872-1.591 1.165-2.453a6.288 6.288 0 0 0 .055-3.229 6.156 6.156 0 0 0-1.552-2.804.31.31 0 0 0-.441.008.325.325 0 0 0-.088.229c0 .085.034.166.093.226a5.49 5.49 0 0 1 1.383 2.5 5.609 5.609 0 0 1-.048 2.88c-.279.813-.65 1.59-1.105 2.314-.377.62-.708 1.269-.989 1.94-.638 1.633-.496 3.834 1.024 4.698.046.026.098.04.15.04Z"/><path fill="#015185" d="m204.492 117.981 46.112 19.675a8.986 8.986 0 0 0 5.251.539 9.156 9.156 0 0 0 4.682-2.511 9.617 9.617 0 0 0 2.588-4.741 9.813 9.813 0 0 0-.35-5.429l-13.753-38.728c-1.778-4.936-6.787-7.775-11.574-5.941-2.299.88-4.165 2.666-5.187 4.965a9.804 9.804 0 0 0-.262 7.291l6.273 18.331-27.025-10.742"/><path fill="#0C0C0C" d="M204.604 118.157a.128.128 0 0 0 .069-.022.133.133 0 0 0 .046-.058l6.709-17.176 26.935 10.717a.12.12 0 0 0 .131-.029.126.126 0 0 0 .028-.136l-4.165-11.021a.131.131 0 0 0-.065-.07.125.125 0 0 0-.095-.002.13.13 0 0 0-.07.165l4.064 10.752-26.788-10.659a.12.12 0 0 0-.093.002.126.126 0 0 0-.065.069l-6.755 17.293a.13.13 0 0 0 .068.166c.015.006.03.009.046.009Z"/><path fill="#0C0C0C" d="M246.822 115.029a.12.12 0 0 0 .079-.029.122.122 0 0 0 .043-.075.126.126 0 0 0-.077-.142l-8.436-3.422a.11.11 0 0 0-.047-.01.129.129 0 0 0-.048.01.128.128 0 0 0-.04.029.117.117 0 0 0-.027.042.136.136 0 0 0 .002.098.146.146 0 0 0 .029.041.105.105 0 0 0 .041.027l8.436 3.422c.014.006.03.009.045.009ZM244.858 135.359a.12.12 0 0 0 .078-.029.127.127 0 0 0 .043-.074.127.127 0 0 0-.074-.142l-40.254-17.202a.128.128 0 0 0-.095 0 .138.138 0 0 0-.04.028.136.136 0 0 0-.036.09c0 .017.004.033.01.048a.123.123 0 0 0 .067.069l40.254 17.202c.015.006.031.01.047.01Z"/><path fill="#494949" d="M40.49 238.887a.307.307 0 0 0 .222-.095c.442-.454 1.16-8.8 3.098-33.649.793-10.168 1.541-19.771 2.087-25.607.04-.417.196-.466.248-.482.748-.232 3.022 1.617 4.292 3.236a.309.309 0 0 0 .44.048.33.33 0 0 0 .047-.454c-.84-1.07-3.576-3.877-4.96-3.448-.278.086-.625.336-.69 1.037-.547 5.842-1.296 15.448-2.088 25.618-1.178 15.1-2.511 32.207-2.95 33.285a.327.327 0 0 0 .092.464c.049.031.105.047.163.047Z"/><path fill="#13266B" d="M46.702 190.245c-5.197-4.294-6.919-10.979-3.847-14.93 3.072-3.951 9.775-3.672 14.97.622 5.197 4.295 6.92 10.979 3.848 14.93-3.072 3.951-9.775 3.672-14.971-.622Z"/><path fill="#fff" d="M46.702 190.245c-5.197-4.294-6.919-10.979-3.847-14.93 3.072-3.951 9.775-3.672 14.97.622 5.197 4.295 6.92 10.979 3.848 14.93-3.072 3.951-9.775 3.672-14.971-.622Z" opacity=".2"/><path fill="#fff" d="M60.217 191.872a.157.157 0 0 0 .141-.093.165.165 0 0 0-.021-.172l-14.81-18.412a.166.166 0 0 0-.047-.041.143.143 0 0 0-.12-.012.162.162 0 0 0-.103.204c.006.02.016.039.03.055l14.809 18.413a.154.154 0 0 0 .12.058Z"/><path fill="#494949" d="M37.26 234.94c.05 0 .1-.012.145-.036a.32.32 0 0 0 .166-.241.333.333 0 0 0-.014-.152l-5.563-16.494a3.076 3.076 0 0 0-.812-1.264 2.96 2.96 0 0 0-1.3-.709 2.895 2.895 0 0 0-1.47.02c-.48.133-.92.389-1.281.743l-2.94 2.897a.33.33 0 0 0-.01.456.305.305 0 0 0 .443.01l2.94-2.896c.284-.28.632-.481 1.011-.586.38-.105.779-.111 1.16-.016.383.095.735.288 1.027.56.29.272.511.615.64.997l5.563 16.494a.323.323 0 0 0 .114.157c.053.039.117.06.182.06Z"/><path fill="#13266B" d="M15.973 228.836c-3.851-3.143-3.622-10.055.511-15.439s10.606-7.2 14.457-4.058c3.851 3.143 3.622 10.055-.511 15.439s-10.606 7.2-14.457 4.058Z"/><path fill="#494949" d="M43.018 237.835c.07 0 .139-.024.194-.069a.324.324 0 0 0 .11-.179l9.336-40.242c.063-.274.2-.525.392-.725.194-.2.437-.341.702-.407.266-.067.545-.057.805.029.26.086.493.244.672.457l2.878 3.429a.315.315 0 0 0 .214.111.313.313 0 0 0 .303-.178.332.332 0 0 0-.043-.356l-2.878-3.428a2.103 2.103 0 0 0-.955-.649 2.05 2.05 0 0 0-1.144-.041 2.097 2.097 0 0 0-.996.579 2.203 2.203 0 0 0-.558 1.03l-9.335 40.243a.331.331 0 0 0 .037.244.317.317 0 0 0 .194.145.288.288 0 0 0 .072.007Z"/><path fill="#13266B" d="M46.461 209.067c-1.135-6.765 1.869-12.95 6.708-13.812 4.84-.863 9.683 3.922 10.818 10.688 1.135 6.766-1.869 12.95-6.708 13.813-4.84.862-9.683-3.923-10.818-10.689Z"/><path fill="#494949" d="M40.49 238.887a.316.316 0 0 0 .247-.124.33.33 0 0 0 .064-.238l-5.961-49.9a2.892 2.892 0 0 0-.622-1.478c-.34-.42-.792-.73-1.3-.892a2.68 2.68 0 0 0-1.561-.021c-.512.148-.97.446-1.322.857l-6.814 7.956a.328.328 0 0 0 .027.456.306.306 0 0 0 .442-.029l6.814-7.956a2.118 2.118 0 0 1 1.023-.662 2.061 2.061 0 0 1 1.207.017c.392.125.741.365 1.005.69.263.325.43.722.48 1.142l5.962 49.899c.009.078.046.149.102.202.057.052.13.081.207.081Z"/><path fill="#13266B" d="M16.234 199.468c-2.377-4.431.42-10.717 6.248-14.041 5.827-3.323 12.479-2.425 14.856 2.006 2.377 4.431-.42 10.717-6.247 14.04-5.828 3.324-12.48 2.426-14.857-2.005Z"/><path fill="#D9D9D9" d="M15.973 228.836c-3.851-3.143-3.622-10.055.511-15.439s10.606-7.2 14.457-4.058c3.851 3.143 3.622 10.055-.511 15.439s-10.606 7.2-14.457 4.058Z" opacity=".2"/><path fill="#015185" d="M46.461 209.067c-1.135-6.765 1.869-12.95 6.708-13.812 4.84-.863 9.683 3.922 10.818 10.688 1.135 6.766-1.869 12.95-6.708 13.813-4.84.862-9.683-3.923-10.818-10.689Z" opacity=".5"/><path fill="#fff" d="M16.234 199.468c-2.377-4.431.42-10.717 6.248-14.041 5.827-3.323 12.479-2.425 14.856 2.006 2.377 4.431-.42 10.717-6.247 14.04-5.828 3.324-12.48 2.426-14.857-2.005Z" opacity=".5"/><path fill="#292A2E" d="M32.866 281.227h15.25l2.526-50.303H30.34l2.527 50.303Z"/><path fill="#fff" d="M32.866 281.227h15.25l2.526-50.303H30.34l2.527 50.303Z" opacity=".3"/><path fill="#fff" d="M15.973 228.995a.148.148 0 0 0 .068-.016.152.152 0 0 0 .055-.045l14.969-19.496a.167.167 0 0 0-.026-.227.152.152 0 0 0-.115-.034.158.158 0 0 0-.105.06l-14.968 19.496a.167.167 0 0 0-.019.171.16.16 0 0 0 .141.091ZM17.23 201.03a.148.148 0 0 0 .092-.032l19.154-14.419a.163.163 0 0 0 .034-.225.147.147 0 0 0-.045-.043.17.17 0 0 0-.057-.022.157.157 0 0 0-.117.029l-19.154 14.42a.166.166 0 0 0 .001.26c.027.02.059.03.092.031v.001ZM58.057 219.545a.157.157 0 0 0 .136-.08.167.167 0 0 0 .015-.123l-6.098-23.553a.16.16 0 0 0-.13-.121.143.143 0 0 0-.062.004.154.154 0 0 0-.096.076.164.164 0 0 0-.014.124l6.097 23.553a.162.162 0 0 0 .056.087.152.152 0 0 0 .096.033Z"/></svg>