<svg width="14" height="17" viewBox="0 0 14 17" fill="none" xmlns="http://www.w3.org/2000/svg">
<path d="M11.375 0H2.625C1.1375 0 0 1.105 0 2.55V7.65H7.525L5.5125 5.695C5.1625 5.355 5.1625 4.845 5.5125 4.505C5.8625 4.165 6.3875 4.165 6.7375 4.505L10.2375 7.905C10.5875 8.245 10.5875 8.755 10.2375 9.095L6.7375 12.495C6.3875 12.835 5.8625 12.835 5.5125 12.495C5.1625 12.155 5.1625 11.645 5.5125 11.305L7.525 9.35H0V14.45C0 15.895 1.1375 17 2.625 17H11.375C12.8625 17 14 15.895 14 14.45V2.55C14 1.105 12.8625 0 11.375 0Z" fill="#061E3E"/>
</svg>
